<svg width="87" height="28" viewBox="0 0 87 28" fill="none" xmlns="http://www.w3.org/2000/svg">
<path d="M1.6 21V7H3.28V19.48H10.36V21H1.6ZM15.578 21.28C14.898 21.28 14.278 21.16 13.718 20.92C13.158 20.68 12.718 20.3333 12.398 19.88C12.078 19.4267 11.918 18.8733 11.918 18.22C11.918 17.5533 12.078 17.0067 12.398 16.58C12.718 16.14 13.158 15.8133 13.718 15.6C14.278 15.3733 14.9046 15.26 15.598 15.26H18.898V14.54C18.898 13.8467 18.6913 13.3 18.278 12.9C17.878 12.5 17.278 12.3 16.478 12.3C15.6913 12.3 15.078 12.4933 14.638 12.88C14.198 13.2533 13.898 13.76 13.738 14.4L12.258 13.92C12.418 13.3733 12.6713 12.88 13.018 12.44C13.3646 11.9867 13.8246 11.6267 14.398 11.36C14.9846 11.08 15.6846 10.94 16.498 10.94C17.7513 10.94 18.7246 11.2667 19.418 11.92C20.1113 12.56 20.458 13.4667 20.458 14.64V19.06C20.458 19.46 20.6446 19.66 21.018 19.66H21.918V21H20.538C20.098 21 19.7446 20.88 19.478 20.64C19.2113 20.3867 19.078 20.0533 19.078 19.64V19.54H18.838C18.6913 19.7933 18.4913 20.06 18.238 20.34C17.998 20.6067 17.6646 20.8267 17.238 21C16.8113 21.1867 16.258 21.28 15.578 21.28ZM15.758 19.92C16.6913 19.92 17.4446 19.6467 18.018 19.1C18.6046 18.54 18.898 17.76 18.898 16.76V16.54H15.658C15.0313 16.54 14.5113 16.68 14.098 16.96C13.698 17.2267 13.498 17.6333 13.498 18.18C13.498 18.7267 13.7046 19.1533 14.118 19.46C14.5446 19.7667 15.0913 19.92 15.758 19.92ZM29.5019 21.28C28.4885 21.28 27.6952 21.0867 27.1219 20.7C26.5619 20.3133 26.1552 19.8733 25.9019 19.38H25.6219V21H24.0819V7H25.6619V12.76H25.9419C26.1019 12.4533 26.3285 12.1667 26.6219 11.9C26.9152 11.62 27.2952 11.3933 27.7619 11.22C28.2419 11.0333 28.8219 10.94 29.5019 10.94C30.3552 10.94 31.1285 11.1467 31.8219 11.56C32.5285 11.96 33.0885 12.54 33.5019 13.3C33.9152 14.0467 34.1219 14.94 34.1219 15.98V16.24C34.1219 17.28 33.9085 18.18 33.4819 18.94C33.0685 19.7 32.5085 20.28 31.8019 20.68C31.1085 21.08 30.3419 21.28 29.5019 21.28ZM29.0819 19.88C30.0952 19.88 30.9152 19.56 31.5419 18.92C32.1819 18.2667 32.5019 17.36 32.5019 16.2V16.02C32.5019 14.86 32.1819 13.96 31.5419 13.32C30.9152 12.6667 30.0952 12.34 29.0819 12.34C28.0819 12.34 27.2552 12.6667 26.6019 13.32C25.9619 13.96 25.6419 14.86 25.6419 16.02V16.2C25.6419 17.36 25.9619 18.2667 26.6019 18.92C27.2552 19.56 28.0819 19.88 29.0819 19.88ZM41.433 21.28C40.4463 21.28 39.5796 21.0733 38.833 20.66C38.0863 20.2333 37.5063 19.64 37.093 18.88C36.6796 18.12 36.473 17.24 36.473 16.24V16C36.473 14.9867 36.6796 14.1 37.093 13.34C37.5063 12.58 38.0796 11.9933 38.813 11.58C39.5463 11.1533 40.3863 10.94 41.333 10.94C42.253 10.94 43.0663 11.14 43.773 11.54C44.4796 11.9267 45.033 12.4867 45.433 13.22C45.833 13.9533 46.033 14.8133 46.033 15.8V16.52H38.053C38.093 17.5733 38.433 18.4 39.073 19C39.713 19.5867 40.513 19.88 41.473 19.88C42.313 19.88 42.9596 19.6867 43.413 19.3C43.8663 18.9133 44.213 18.4533 44.453 17.92L45.813 18.58C45.613 18.9933 45.333 19.4067 44.973 19.82C44.6263 20.2333 44.1663 20.58 43.593 20.86C43.033 21.14 42.313 21.28 41.433 21.28ZM38.073 15.22H44.433C44.3796 14.3133 44.0663 13.6067 43.493 13.1C42.933 12.5933 42.213 12.34 41.333 12.34C40.4396 12.34 39.7063 12.5933 39.133 13.1C38.5596 13.6067 38.2063 14.3133 38.073 15.22ZM48.7889 21V7H50.3689V21H48.7889Z" fill="black"/>
<path d="M67.25 17.701C66.5326 18.1152 66.2867 19.0326 66.701 19.75C67.1152 20.4674 68.0326 20.7133 68.75 20.299L67.25 17.701ZM86.7694 9.38823C86.9838 8.58803 86.5089 7.76552 85.7087 7.55111L72.6687 4.05705C71.8685 3.84264 71.046 4.31751 70.8316 5.11771C70.6172 5.91791 71.0921 6.74042 71.8923 6.95483L83.4834 10.0607L80.3776 21.6518C80.1631 22.452 80.638 23.2745 81.4382 23.4889C82.2384 23.7033 83.0609 23.2284 83.2753 22.4282L86.7694 9.38823ZM68.75 20.299L86.0705 10.299L84.5705 7.70096L67.25 17.701L68.75 20.299Z" fill="black"/>
</svg>
