<svg width="123" height="68" viewBox="0 0 123 68" fill="none" xmlns="http://www.w3.org/2000/svg">
<rect width="123" height="68" rx="14" fill="#B9FF66"/>
<path d="M37.0844 41V27H38.7644V39.48H45.8444V41H37.0844ZM51.0623 41.28C50.3823 41.28 49.7623 41.16 49.2023 40.92C48.6423 40.68 48.2023 40.3333 47.8823 39.88C47.5623 39.4267 47.4023 38.8733 47.4023 38.22C47.4023 37.5533 47.5623 37.0067 47.8823 36.58C48.2023 36.14 48.6423 35.8133 49.2023 35.6C49.7623 35.3733 50.389 35.26 51.0823 35.26H54.3823V34.54C54.3823 33.8467 54.1757 33.3 53.7623 32.9C53.3623 32.5 52.7623 32.3 51.9623 32.3C51.1757 32.3 50.5623 32.4933 50.1223 32.88C49.6823 33.2533 49.3823 33.76 49.2223 34.4L47.7423 33.92C47.9023 33.3733 48.1557 32.88 48.5023 32.44C48.849 31.9867 49.309 31.6267 49.8823 31.36C50.469 31.08 51.169 30.94 51.9823 30.94C53.2357 30.94 54.209 31.2667 54.9023 31.92C55.5957 32.56 55.9423 33.4667 55.9423 34.64V39.06C55.9423 39.46 56.129 39.66 56.5023 39.66H57.4023V41H56.0223C55.5823 41 55.229 40.88 54.9623 40.64C54.6957 40.3867 54.5623 40.0533 54.5623 39.64V39.54H54.3223C54.1757 39.7933 53.9757 40.06 53.7223 40.34C53.4823 40.6067 53.149 40.8267 52.7223 41C52.2957 41.1867 51.7423 41.28 51.0623 41.28ZM51.2423 39.92C52.1757 39.92 52.929 39.6467 53.5023 39.1C54.089 38.54 54.3823 37.76 54.3823 36.76V36.54H51.1423C50.5157 36.54 49.9957 36.68 49.5823 36.96C49.1823 37.2267 48.9823 37.6333 48.9823 38.18C48.9823 38.7267 49.189 39.1533 49.6023 39.46C50.029 39.7667 50.5757 39.92 51.2423 39.92ZM64.9863 41.28C63.9729 41.28 63.1796 41.0867 62.6063 40.7C62.0463 40.3133 61.6396 39.8733 61.3863 39.38H61.1063V41H59.5663V27H61.1463V32.76H61.4263C61.5863 32.4533 61.8129 32.1667 62.1063 31.9C62.3996 31.62 62.7796 31.3933 63.2463 31.22C63.7263 31.0333 64.3063 30.94 64.9863 30.94C65.8396 30.94 66.6129 31.1467 67.3063 31.56C68.0129 31.96 68.5729 32.54 68.9863 33.3C69.3996 34.0467 69.6063 34.94 69.6063 35.98V36.24C69.6063 37.28 69.3929 38.18 68.9663 38.94C68.5529 39.7 67.9929 40.28 67.2863 40.68C66.5929 41.08 65.8263 41.28 64.9863 41.28ZM64.5663 39.88C65.5796 39.88 66.3996 39.56 67.0263 38.92C67.6663 38.2667 67.9863 37.36 67.9863 36.2V36.02C67.9863 34.86 67.6663 33.96 67.0263 33.32C66.3996 32.6667 65.5796 32.34 64.5663 32.34C63.5663 32.34 62.7396 32.6667 62.0863 33.32C61.4463 33.96 61.1263 34.86 61.1263 36.02V36.2C61.1263 37.36 61.4463 38.2667 62.0863 38.92C62.7396 39.56 63.5663 39.88 64.5663 39.88ZM76.9173 41.28C75.9307 41.28 75.064 41.0733 74.3173 40.66C73.5707 40.2333 72.9907 39.64 72.5773 38.88C72.164 38.12 71.9573 37.24 71.9573 36.24V36C71.9573 34.9867 72.164 34.1 72.5773 33.34C72.9907 32.58 73.564 31.9933 74.2973 31.58C75.0307 31.1533 75.8707 30.94 76.8173 30.94C77.7373 30.94 78.5507 31.14 79.2573 31.54C79.964 31.9267 80.5173 32.4867 80.9173 33.22C81.3173 33.9533 81.5173 34.8133 81.5173 35.8V36.52H73.5373C73.5773 37.5733 73.9173 38.4 74.5573 39C75.1973 39.5867 75.9973 39.88 76.9573 39.88C77.7973 39.88 78.444 39.6867 78.8973 39.3C79.3507 38.9133 79.6973 38.4533 79.9373 37.92L81.2973 38.58C81.0973 38.9933 80.8173 39.4067 80.4573 39.82C80.1107 40.2333 79.6507 40.58 79.0773 40.86C78.5173 41.14 77.7973 41.28 76.9173 41.28ZM73.5573 35.22H79.9173C79.864 34.3133 79.5507 33.6067 78.9773 33.1C78.4173 32.5933 77.6973 32.34 76.8173 32.34C75.924 32.34 75.1907 32.5933 74.6173 33.1C74.044 33.6067 73.6907 34.3133 73.5573 35.22ZM84.2733 41V27H85.8533V41H84.2733Z" fill="black"/>
</svg>
